<svg xmlns="http://www.w3.org/2000/svg" xmlns:xlink="http://www.w3.org/1999/xlink" viewBox="0 0 125.289 20.03">
  <defs>
    <style>
      .cls-1 {
        fill: url(#linear-gradient);
      }

      .cls-2 {
        fill: url(#linear-gradient-2);
      }

      .cls-3 {
        fill: url(#linear-gradient-3);
      }
    </style>
    <linearGradient id="linear-gradient" x1="0.018" y1="0.668" x2="0.991" y2="0.77" gradientUnits="objectBoundingBox">
      <stop offset="0" stop-color="#115bc4"/>
      <stop offset="1" stop-color="#05bdfd"/>
    </linearGradient>
    <linearGradient id="linear-gradient-2" x1="0.175" y1="1" x2="1.624" y2="-0.355" gradientUnits="objectBoundingBox">
      <stop offset="0" stop-color="#115bc4"/>
      <stop offset="0.696" stop-color="#05bdfd"/>
      <stop offset="1" stop-color="#083566"/>
    </linearGradient>
    <linearGradient id="linear-gradient-3" x1="-0.213" y1="0.895" x2="1" y2="0.376" xlink:href="#linear-gradient"/>
  </defs>
  <g id="Group_2" data-name="Group 2" transform="translate(0 -21)">
    <g id="Group_1" data-name="Group 1">
      <path id="Path_13" data-name="Path 13" class="cls-1" d="M1.649-1.7c0,1.054.2,1.87,1.564,1.87A4.442,4.442,0,0,0,5.168-.408c.187-.119.238-.221.119-.425l-.255-.425c-.085-.136-.153-.238-.408-.1a3.245,3.245,0,0,1-1.241.374c-.391,0-.561-.136-.561-.816V-5.78H4.794A.323.323,0,0,0,5.117-6.1v-.374A.313.313,0,0,0,4.794-6.8H2.822V-8.721a.32.32,0,0,0-.306-.323l-.544.034a.334.334,0,0,0-.323.323V-6.8H.782a.313.313,0,0,0-.323.323V-6.1a.323.323,0,0,0,.323.323h.867ZM7.038-.323A.334.334,0,0,0,7.361,0h.527a.334.334,0,0,0,.323-.323V-4.879A3.318,3.318,0,0,1,10.4-5.831c.952,0,1.53.629,1.53,1.921V-.323A.334.334,0,0,0,12.257,0H12.8a.334.334,0,0,0,.323-.323V-3.91c0-1.989-.952-3.06-2.635-3.06a3.471,3.471,0,0,0-2.278.9v-5.508a.334.334,0,0,0-.323-.323H7.361a.334.334,0,0,0-.323.323ZM14.96-3.4A3.333,3.333,0,0,0,18.292.17a4.225,4.225,0,0,0,2.5-.782c.255-.187.187-.289.068-.442-.1-.136-.187-.255-.289-.391-.136-.187-.238-.1-.476.034a3.235,3.235,0,0,1-1.683.51,2.387,2.387,0,0,1-2.278-2.21h4.9a.313.313,0,0,0,.306-.289,4.168,4.168,0,0,0,.034-.459A3,3,0,0,0,18.292-6.97,3.352,3.352,0,0,0,14.96-3.4Zm1.19-.663a2.114,2.114,0,0,1,2.142-1.87,1.964,1.964,0,0,1,1.9,1.87ZM26.673-.408c-.051.238.051.408.306.408h.68a.331.331,0,0,0,.306-.238l1.479-8.755h.068L32.674-.017a.345.345,0,0,0,.289.187h.306a.345.345,0,0,0,.289-.187l3.128-8.976h.068L38.267-.238A.349.349,0,0,0,38.573,0h.68c.255,0,.357-.17.306-.408L37.366-11.832a.327.327,0,0,0-.306-.238h-.272a.324.324,0,0,0-.289.187L33.184-2.516H33.1l-3.366-9.367a.324.324,0,0,0-.289-.187h-.272a.327.327,0,0,0-.306.238ZM41-3.417A3.494,3.494,0,0,0,44.387.17,3.494,3.494,0,0,0,47.77-3.417,3.485,3.485,0,0,0,44.387-6.97,3.485,3.485,0,0,0,41-3.417Zm1.173,0a2.315,2.315,0,0,1,2.21-2.431A2.315,2.315,0,0,1,46.6-3.417a2.341,2.341,0,0,1-2.21,2.482A2.341,2.341,0,0,1,42.177-3.417ZM49.708-.323A.334.334,0,0,0,50.031,0h.357a.308.308,0,0,0,.289-.272l.1-.459a3.042,3.042,0,0,0,2.091.9,3.367,3.367,0,0,0,3.094-3.587A3.258,3.258,0,0,0,52.7-6.97a3.64,3.64,0,0,0-1.819.442v-5.049a.334.334,0,0,0-.323-.323h-.527a.334.334,0,0,0-.323.323Zm1.19-1.7v-3.4a3.653,3.653,0,0,1,1.649-.408A2.18,2.18,0,0,1,54.774-3.4,2.248,2.248,0,0,1,52.751-.9,2.3,2.3,0,0,1,50.9-2.023Zm7.548-7.922a.8.8,0,0,0,.816-.8.806.806,0,0,0-.816-.816.8.8,0,0,0-.8.816A.8.8,0,0,0,58.446-9.945ZM57.885-.323A.334.334,0,0,0,58.208,0h.527a.334.334,0,0,0,.323-.323V-6.477a.334.334,0,0,0-.323-.323h-.527a.334.334,0,0,0-.323.323Zm3.6,0A.334.334,0,0,0,61.812,0h.527a.334.334,0,0,0,.323-.323V-11.577a.334.334,0,0,0-.323-.323h-.527a.334.334,0,0,0-.323.323ZM64.6-3.4A3.333,3.333,0,0,0,67.932.17a4.225,4.225,0,0,0,2.5-.782c.255-.187.187-.289.068-.442-.1-.136-.187-.255-.289-.391-.136-.187-.238-.1-.476.034a3.235,3.235,0,0,1-1.683.51,2.387,2.387,0,0,1-2.278-2.21h4.9a.313.313,0,0,0,.306-.289,4.167,4.167,0,0,0,.034-.459A3,3,0,0,0,67.932-6.97,3.352,3.352,0,0,0,64.6-3.4Zm1.19-.663a2.114,2.114,0,0,1,2.142-1.87,1.964,1.964,0,0,1,1.9,1.87ZM76.5-1.207A5.542,5.542,0,0,0,80.087.17c1.989,0,3.672-1.292,3.672-3.06,0-1.972-1.479-2.839-3.774-3.774-1.428-.595-2.295-1.258-2.295-2.4,0-.714.544-1.87,2.346-1.87a4.759,4.759,0,0,1,2.227.782.385.385,0,0,0,.6-.153c.068-.1.136-.221.2-.323a.379.379,0,0,0-.1-.578,5.56,5.56,0,0,0-2.907-.867c-2.7,0-3.621,1.87-3.621,3.026,0,1.938,1.122,2.7,2.992,3.519,1.955.816,2.975,1.513,2.975,2.686a2.051,2.051,0,0,1-2.278,1.87,4.7,4.7,0,0,1-2.873-1.292c-.238-.2-.425-.068-.6.153-.085.1-.17.221-.255.323A.373.373,0,0,0,76.5-1.207ZM85.884-1.7c0,1.054.2,1.87,1.564,1.87A4.442,4.442,0,0,0,89.4-.408c.187-.119.238-.221.119-.425l-.255-.425c-.085-.136-.153-.238-.408-.1a3.245,3.245,0,0,1-1.241.374c-.391,0-.561-.136-.561-.816V-5.78h1.972a.323.323,0,0,0,.323-.323v-.374a.313.313,0,0,0-.323-.323H87.057V-8.721a.32.32,0,0,0-.306-.323l-.544.034a.334.334,0,0,0-.323.323V-6.8h-.867a.313.313,0,0,0-.323.323V-6.1a.323.323,0,0,0,.323.323h.867Zm4.879-1.717A3.494,3.494,0,0,0,94.146.17a3.494,3.494,0,0,0,3.383-3.587A3.485,3.485,0,0,0,94.146-6.97,3.485,3.485,0,0,0,90.763-3.417Zm1.173,0a2.315,2.315,0,0,1,2.21-2.431,2.315,2.315,0,0,1,2.21,2.431,2.341,2.341,0,0,1-2.21,2.482A2.341,2.341,0,0,1,91.936-3.417ZM99.45-.323A.334.334,0,0,0,99.773,0h.527a.334.334,0,0,0,.323-.323V-4.862a2.184,2.184,0,0,1,1.853-.952,1.753,1.753,0,0,1,.663.136c.17.068.323.068.408-.153l.2-.578c.17-.476-.68-.561-1.19-.561a2.514,2.514,0,0,0-2.04.9l-.136-.493A.289.289,0,0,0,100.1-6.8h-.323a.334.334,0,0,0-.323.323ZM104.584-3.4A3.333,3.333,0,0,0,107.916.17a4.225,4.225,0,0,0,2.5-.782c.255-.187.187-.289.068-.442-.1-.136-.187-.255-.289-.391-.136-.187-.238-.1-.476.034a3.235,3.235,0,0,1-1.683.51,2.387,2.387,0,0,1-2.278-2.21h4.9a.313.313,0,0,0,.306-.289,4.167,4.167,0,0,0,.034-.459,3,3,0,0,0-3.077-3.111A3.352,3.352,0,0,0,104.584-3.4Zm1.19-.663a2.114,2.114,0,0,1,2.142-1.87,1.964,1.964,0,0,1,1.9,1.87Z" transform="translate(14.296 36)"/>
      <g id="smartphone-with-glasses" transform="translate(0 21)">
        <path id="Path_12" data-name="Path 12" class="cls-2" d="M22.436,4.579a1.658,1.658,0,0,0-1.07-.512V1.158A1.161,1.161,0,0,0,20.207,0H12.559A1.162,1.162,0,0,0,11.4,1.158V4.067A1.655,1.655,0,0,0,9.881,5.844L9.987,7.51A1.9,1.9,0,0,0,11.4,9.2V16a1.161,1.161,0,0,0,1.158,1.158h7.648A1.161,1.161,0,0,0,21.364,16V9.2a1.9,1.9,0,0,0,1.412-1.686l.106-1.667A1.668,1.668,0,0,0,22.436,4.579ZM15.159.835h2.447a.14.14,0,1,1,0,.281H15.159a.14.14,0,0,1,0-.281Zm5.4,1V4.052H18.428A1.655,1.655,0,0,0,16.75,5.694h-.734a1.654,1.654,0,0,0-1.677-1.642H12.206V1.838ZM10.615,7.471,10.509,5.8a1.044,1.044,0,0,1,1.056-1.126h2.774A1.044,1.044,0,0,1,15.394,5.8l-.106,1.667a1.263,1.263,0,0,1-1.242,1.165H11.857A1.264,1.264,0,0,1,10.615,7.471Zm5.769,9.105a.58.58,0,1,1,.58-.58A.58.58,0,0,1,16.383,16.576Zm-4.177-1.565V9.264h1.839a1.9,1.9,0,0,0,1.869-1.753l.066-1.042h.8l.066,1.042a1.9,1.9,0,0,0,1.869,1.753h1.84v5.747H12.206Zm9.945-7.54a1.263,1.263,0,0,1-1.243,1.165H18.72a1.263,1.263,0,0,1-1.243-1.165L17.371,5.8a1.044,1.044,0,0,1,1.055-1.126H21.2A1.045,1.045,0,0,1,22.257,5.8ZM14.01,11.819h4.746V12.5H14.01Z" transform="translate(-9.878)"/>
      </g>
    </g>
    <path id="Path_14" data-name="Path 14" class="cls-3" d="M.555,0A.053.053,0,0,0,.606.03H.621A.053.053,0,0,0,.672,0l.513-1.131c.018-.039,0-.069-.045-.069H1.062a.057.057,0,0,0-.051.033l-.4.858h0L.24-1.167A.058.058,0,0,0,.186-1.2H.093c-.045,0-.063.03-.045.069ZM1.68-.057A.057.057,0,0,0,1.737,0h.108A.056.056,0,0,0,1.9-.057V-1.983a.056.056,0,0,0-.054-.057H1.764l-.42.408a.047.047,0,0,0-.006.066l.057.063a.046.046,0,0,0,.069,0l.216-.168Zm.7-.084A.173.173,0,0,0,2.55.03a.171.171,0,0,0,.171-.171A.169.169,0,0,0,2.55-.312.171.171,0,0,0,2.379-.141Zm1.4.171c.465,0,.729-.393.729-1.05s-.264-1.05-.729-1.05-.729.393-.729,1.05S3.312.03,3.777.03Zm0-.2c-.33,0-.516-.306-.516-.855s.186-.855.516-.855.516.312.516.855S4.107-.165,3.777-.165Z" transform="translate(120 41)"/>
  </g>
</svg>
