<svg xmlns="http://www.w3.org/2000/svg" xmlns:xlink="http://www.w3.org/1999/xlink" viewBox="0 0 10.882 14.35">
  <defs>
    <style>
      .cls-1 {
        fill: url(#linear-gradient);
      }
    </style>
    <linearGradient id="linear-gradient" x1="0.175" y1="1" x2="1.624" y2="-0.355" gradientUnits="objectBoundingBox">
      <stop offset="0" stop-color="#115bc4"/>
      <stop offset="0.696" stop-color="#05bdfd"/>
      <stop offset="1" stop-color="#083566"/>
    </linearGradient>
  </defs>
  <g id="Group_2" data-name="Group 2" transform="translate(-2 -1)">
    <g id="Group_1" data-name="Group 1">
      <g id="smartphone-with-glasses" transform="translate(2 1)">
        <path id="Path_12" data-name="Path 12" class="cls-1" d="M20.383,3.831a1.387,1.387,0,0,0-.9-.428V.969A.971.971,0,0,0,18.518,0h-6.4a.972.972,0,0,0-.969.969V3.4A1.384,1.384,0,0,0,9.881,4.889l.089,1.394a1.589,1.589,0,0,0,1.181,1.411v5.688a.971.971,0,0,0,.969.969h6.4a.971.971,0,0,0,.969-.969V7.694a1.589,1.589,0,0,0,1.181-1.41l.088-1.394A1.4,1.4,0,0,0,20.383,3.831ZM14.3.7h2.047a.117.117,0,1,1,0,.235H14.3A.117.117,0,0,1,14.3.7Zm4.518.839V3.389H17.03a1.384,1.384,0,0,0-1.4,1.374h-.614a1.384,1.384,0,0,0-1.4-1.374H11.826V1.538ZM10.494,6.25l-.088-1.394a.874.874,0,0,1,.883-.942H13.61a.874.874,0,0,1,.883.942L14.4,6.25a1.057,1.057,0,0,1-1.039.975H11.534A1.057,1.057,0,0,1,10.494,6.25Zm4.826,7.617a.485.485,0,1,1,.485-.485A.485.485,0,0,1,15.32,13.867Zm-3.494-1.309V7.75h1.539a1.589,1.589,0,0,0,1.564-1.467l.055-.872h.672l.055.872A1.589,1.589,0,0,0,17.274,7.75h1.539v4.808H11.826ZM20.145,6.25a1.057,1.057,0,0,1-1.04.975H17.275a1.057,1.057,0,0,1-1.04-.975l-.088-1.394a.873.873,0,0,1,.883-.942H19.35a.874.874,0,0,1,.883.942ZM13.334,9.887h3.971v.567H13.334Z" transform="translate(-9.878)"/>
      </g>
    </g>
  </g>
</svg>
